<?xml version="1.0" encoding="UTF-8" standalone="no"?>
<svg
   xmlns:dc="http://purl.org/dc/elements/1.1/"
   xmlns:cc="http://creativecommons.org/ns#"
   xmlns:rdf="http://www.w3.org/1999/02/22-rdf-syntax-ns#"
   xmlns:svg="http://www.w3.org/2000/svg"
   xmlns="http://www.w3.org/2000/svg"
   xmlns:sodipodi="http://sodipodi.sourceforge.net/DTD/sodipodi-0.dtd"
   xmlns:inkscape="http://www.inkscape.org/namespaces/inkscape"
   height="512"
   preserveAspectRatio="xMidYMid"
   viewBox="0 0 512 512"
   width="512"
   version="1.1"
   id="svg12"
   sodipodi:docname="groupme.svg"
   inkscape:version="1.0 (1.0+r73+1)">
  <metadata
     id="metadata16">
    <rdf:RDF>
      <cc:Work
         rdf:about="">
        <dc:format>image/svg+xml</dc:format>
        <dc:type
           rdf:resource="http://purl.org/dc/dcmitype/StillImage" />
        <dc:title></dc:title>
      </cc:Work>
    </rdf:RDF>
  </metadata>
  <sodipodi:namedview
     inkscape:document-rotation="0"
     pagecolor="#ffffff"
     bordercolor="#666666"
     borderopacity="1"
     objecttolerance="10"
     gridtolerance="10"
     guidetolerance="10"
     inkscape:pageopacity="0"
     inkscape:pageshadow="2"
     inkscape:window-width="1920"
     inkscape:window-height="1015"
     id="namedview14"
     showgrid="false"
     inkscape:zoom="1.6484375"
     inkscape:cx="256.60664"
     inkscape:cy="280.2654"
     inkscape:window-x="0"
     inkscape:window-y="0"
     inkscape:window-maximized="1"
     inkscape:current-layer="svg12" />
  <defs
     id="defs4">
    <style
       id="style2">
      .cls-1 {
        fill: #fff;
      }

      .cls-2 {
        fill: #01b0ef;
      }

      .cls-2, .cls-3 {
        fill-rule: evenodd;
      }

      .cls-3 {
        fill: #000;
        opacity: 0.1;
      }
    </style>
  </defs>
  <circle
     class="cls-1"
     cx="256"
     cy="256"
     r="256"
     id="circle6"
     style="fill:#cabfe9;fill-opacity:0.00727709" />
  <path
     class="cls-2"
     d="M256.000,512.000 C114.615,512.000 0.000,397.385 0.000,256.000 C0.000,114.615 114.615,0.000 256.000,0.000 C397.385,0.000 512.000,114.615 512.000,256.000 C512.000,397.385 397.385,512.000 256.000,512.000 ZM335.920,225.602 L303.632,225.729 L303.432,195.780 L335.920,195.988 L335.920,164.180 L303.217,163.520 L302.980,127.984 L270.947,127.984 L271.138,163.083 L240.393,163.083 L240.906,127.984 L208.551,127.984 L208.786,163.139 L176.709,164.180 L176.709,197.084 L208.229,197.163 L209.001,226.631 L176.709,226.699 L176.709,259.604 L209.429,259.528 L209.649,292.509 L241.291,292.509 L241.491,258.507 L271.138,258.507 L271.660,292.509 L304.078,292.509 L303.850,258.379 L335.920,258.507 L335.920,225.602 ZM369.958,310.058 C296.788,398.951 187.937,373.052 140.475,307.864 C125.310,287.035 86.475,298.335 110.829,334.188 C180.697,437.047 339.506,428.020 401.800,334.188 C423.329,301.760 391.730,283.608 369.958,310.058 ZM241.291,197.245 L270.502,197.318 L270.697,226.502 L242.060,226.562 L241.291,197.245 Z"
     id="path8"
     style="fill:#ffffff;fill-opacity:1" />
  <path
     class="cls-3"
     d="M436.999,75.012 C536.959,174.972 536.959,337.039 436.999,436.999 C337.039,536.959 174.972,536.959 75.012,436.999 "
     id="path10"
     style="fill:#000000;fill-opacity:0" />
</svg>
