<?xml version="1.0" encoding="UTF-8" standalone="no"?>
<svg
   xmlns:dc="http://purl.org/dc/elements/1.1/"
   xmlns:cc="http://creativecommons.org/ns#"
   xmlns:rdf="http://www.w3.org/1999/02/22-rdf-syntax-ns#"
   xmlns:svg="http://www.w3.org/2000/svg"
   xmlns="http://www.w3.org/2000/svg"
   xmlns:sodipodi="http://sodipodi.sourceforge.net/DTD/sodipodi-0.dtd"
   xmlns:inkscape="http://www.inkscape.org/namespaces/inkscape"
   inkscape:version="1.0 (1.0+r73+1)"
   sodipodi:docname="question-mark-round_cyan.svg"
   id="svg4"
   version="1.1"
   viewBox="0 0 640 640"
   clip-rule="evenodd"
   fill-rule="evenodd"
   image-rendering="optimizeQuality"
   text-rendering="geometricPrecision"
   shape-rendering="geometricPrecision"
   height="64"
   width="64">
  <metadata
     id="metadata10">
    <rdf:RDF>
      <cc:Work
         rdf:about="">
        <dc:format>image/svg+xml</dc:format>
        <dc:type
           rdf:resource="http://purl.org/dc/dcmitype/StillImage" />
        <dc:title></dc:title>
      </cc:Work>
    </rdf:RDF>
  </metadata>
  <defs
     id="defs8" />
  <sodipodi:namedview
     inkscape:current-layer="svg4"
     inkscape:window-maximized="1"
     inkscape:window-y="0"
     inkscape:window-x="0"
     inkscape:cy="32"
     inkscape:cx="32.075829"
     inkscape:zoom="13.1875"
     showgrid="false"
     id="namedview6"
     inkscape:window-height="1015"
     inkscape:window-width="1920"
     inkscape:pageshadow="2"
     inkscape:pageopacity="0"
     guidetolerance="10"
     gridtolerance="10"
     objecttolerance="10"
     borderopacity="1"
     bordercolor="#666666"
     pagecolor="#ffffff" />
  <path
     style="fill:#99ffff;fill-opacity:1"
     id="path2"
     d="M640.012 319.988c0-176.707-143.293-320-320.012-320C143.281 0-.024 143.281 0 319.988-.012 496.695 143.305 640.012 320 640c176.719 0 320-143.293 320.012-320.012zM358.28 388.445h-91.1v-9.094c0-15.45 1.666-28.087 5.197-37.76 3.544-9.756 8.776-18.497 15.697-26.528 6.98-8.02 22.678-22.052 46.938-42.237 12.91-10.595 19.418-20.22 19.418-28.95 0-8.893-2.634-15.66-7.808-20.574-5.196-4.831-13.063-7.311-23.67-7.311-11.385 0-20.716 3.791-28.11 11.256-7.453 7.5-12.2 20.67-14.256 39.378l-93.107-11.587c3.2-34.205 15.65-61.76 37.264-82.56 21.709-20.918 54.934-31.311 99.674-31.311 34.879 0 63.013 7.31 84.45 21.803 29.15 19.701 43.666 45.934 43.666 78.639 0 13.654-3.791 26.764-11.268 39.402-7.5 12.685-22.878 28.075-46.099 46.229-16.075 12.933-26.303 23.102-30.543 30.898-4.229 7.7-6.343 17.858-6.343 30.307zm-94.312 24.296h97.678v86.08h-97.678v-86.08z" />
</svg>
