<?xml version="1.0" encoding="UTF-8" standalone="no"?>
<svg
   xmlns:dc="http://purl.org/dc/elements/1.1/"
   xmlns:cc="http://creativecommons.org/ns#"
   xmlns:rdf="http://www.w3.org/1999/02/22-rdf-syntax-ns#"
   xmlns:svg="http://www.w3.org/2000/svg"
   xmlns="http://www.w3.org/2000/svg"
   xmlns:sodipodi="http://sodipodi.sourceforge.net/DTD/sodipodi-0.dtd"
   xmlns:inkscape="http://www.inkscape.org/namespaces/inkscape"
   version="1.1"
   id="svg10"
   width="235.54468"
   height="129.06181"
   viewBox="0 0 235.54468 129.06181"
   sodipodi:docname="Synthabit_SVG_Large.svg"
   inkscape:version="1.0 (1.0+r73+1)">
  <metadata
     id="metadata16">
    <rdf:RDF>
      <cc:Work
         rdf:about="">
        <dc:format>image/svg+xml</dc:format>
        <dc:type
           rdf:resource="http://purl.org/dc/dcmitype/StillImage" />
        <dc:title></dc:title>
      </cc:Work>
    </rdf:RDF>
  </metadata>
  <defs
     id="defs14" />
  <sodipodi:namedview
     inkscape:document-rotation="0"
     pagecolor="#ffffff"
     bordercolor="#666666"
     borderopacity="1"
     objecttolerance="10"
     gridtolerance="10"
     guidetolerance="10"
     inkscape:pageopacity="0"
     inkscape:pageshadow="2"
     inkscape:window-width="1920"
     inkscape:window-height="1015"
     id="namedview12"
     showgrid="false"
     inkscape:pagecheckerboard="true"
     inkscape:zoom="2.8931649"
     inkscape:cx="206.73468"
     inkscape:cy="106.15234"
     inkscape:window-x="0"
     inkscape:window-y="0"
     inkscape:window-maximized="1"
     inkscape:current-layer="svg10"
     fit-margin-top="0"
     fit-margin-left="0"
     fit-margin-right="0"
     fit-margin-bottom="0" />
  <path
     style="fill:#000000;stroke-width:0.109626"
     d="m 116.50825,129.00141 c -4.57721,-0.34104 -9.20363,-1.60344 -13.1551,-3.58958 -5.853626,-2.94224 -10.740326,-7.43793 -14.178246,-13.04377 -1.27103,-2.07252 -2.6746,-5.1295 -3.31002,-7.20919 -0.1658,-0.54265 -0.34382,-1.0853 -0.3956,-1.20589 -0.0518,-0.12059 -0.24316,-0.84919 -0.42528,-1.61913 -0.70172,-2.966619 -1.03954,-6.422969 -0.91874,-9.400169 l 0.0735,-1.81072 -1.25381,-0.24434 c -5.80052,-1.13048 -9.62834,-1.50103 -15.494229,-1.49998 -4.176675,0.001 -5.603654,0.0754 -9.425092,0.4929 -6.80069,0.743 -14.756793,2.54851 -22.695287,5.15033 -8.817664,2.88997 -17.435071,6.369359 -31.0789342,12.548559 -4.15688995,1.88262 -4.36573895,1.97333 -4.22059595,1.83303 0.656784,-0.63483 12.41921615,-10.065339 15.56687415,-12.480719 12.822963,-9.83976 21.627126,-14.91426 35.738033,-20.59849 5.344988,-2.15311 6.856993,-2.68573 7.930082,-2.79346 2.64248,-0.26527 5.53251,-0.35378 9.601276,-0.29403 6.783944,0.0996 11.917243,0.69196 18.808163,2.17036 0.81317,0.17446 1.57782,0.31682 1.6992,0.31636 0.31168,-0.001 0.71402,-0.74689 0.71402,-1.32335 0,-0.29109 -0.15742,-0.82367 -0.43104,-1.45824 -0.23708,-0.54981 -0.77607,-1.81363 -1.19776,-2.80849 -3.53716,-8.34481 -8.7531,-19.23402 -12.103746,-25.26876 -5.286408,-9.52115 -10.026553,-16.29733 -21.262964,-30.39603 l -2.859559,-3.58799 -0.632195,-0.22979 c -1.624653,-0.59051 -2.806251,-1.7993796 -3.373592,-3.4514396 -0.660454,-1.9232 -0.144637,-4.03267 1.352071,-5.52937 0.821648,-0.82164998 1.763035,-1.31198998 2.978647,-1.55147998 0.805537,-0.158696 0.953767,-0.158406 1.747256,0.003 2.189641,0.44644 3.719683,1.82975998 4.385359,3.96480998 0.279439,0.89625 0.324928,0.96036 3.589585,5.05877 12.533897,15.7349096 17.564398,23.1004396 23.756748,34.7839996 2.69643,5.08756 7.60096,15.47961 10.30913,21.84366 0.39107,0.91901 0.65131,1.39601 0.76254,1.39773 0.0929,10e-4 0.66353,-0.36261 1.2681,-0.809 4.232336,-3.125 9.405696,-5.31843 14.623226,-6.20002 2.18715,-0.36956 3.49695,-0.47712 5.81017,-0.47712 5.55851,0 10.56882,1.19311 15.58357,3.71093 1.94151,0.97481 4.68157,2.69387 5.54123,3.47647 0.1326,0.12071 0.31233,0.19214 0.39939,0.15873 0.0871,-0.0334 0.34246,-0.6193 0.56755,-1.30197 0.63693,-1.93191 2.58307,-7.28223 3.48767,-9.58834 2.93093,-7.47192 6.33645,-14.53085 10.54364,-21.85482 4.57309,-7.96094 9.12981,-14.75311 17.09268,-25.4779896 1.17659,-1.58471 1.30859,-1.80998 1.44531,-2.46658 0.22398,-1.07559 0.73852,-2.02586 1.52019,-2.80752 0.82164,-0.82165 1.76303,-1.31198 2.97864,-1.55147 0.80554,-0.1587 0.95377,-0.15841 1.74726,0.003 3.97449,0.81035 5.82986,5.03512 3.67525,8.3687196 -0.5502,0.85127 -1.31709,1.50683 -2.31489,1.97884 -0.93018,0.44001 -0.40382,-0.19459 -4.70546,5.67318 -11.37719,15.51939 -18.57341,28.21604 -23.98364,42.31558 -1.83178,4.77377 -4.85642,13.59637 -4.85642,14.16575 0,0.28304 0.16305,0.65087 0.59153,1.33444 2.72606,4.34896 4.34768,8.82498 5.12772,14.15361 0.19605,1.33919 0.24944,2.19276 0.25205,4.02876 0.002,1.28127 0.0175,2.32956 0.0349,2.32955 0.0174,0 0.97933,0.19312 2.1377,0.42916 3.64543,0.74282 7.0849,1.19707 10.92986,1.44349 2.51012,0.16087 8.42904,0.0709 10.96374,-0.16672 15.13451,-1.4186 29.69162,-6.22013 55.36107,-18.26035 1.05514,-0.49492 2.09111,-0.97268 2.30214,-1.06169 0.38185,-0.16105 0.38264,-0.16079 0.16444,0.0533 -0.75217,0.73799 -9.33608,7.68822 -12.49735,10.11885 -9.5184,7.3185 -18.54397,12.996139 -28.88642,18.171339 -8.54143,4.274 -14.65988,6.55602 -19.29415,7.1962 -2.39916,0.33142 -9.34616,0.16193 -13.70323,-0.33434 -3.64221,-0.41483 -9.02424,-1.35744 -11.85546,-2.07634 -0.27386,-0.0695 -0.34781,0.0135 -1.33451,1.49753 -4.09914,6.16545 -9.67457,10.6877 -16.45934,13.35025 -1.54385,0.60585 -3.76919,1.27407 -5.45978,1.63945 -2.64567,0.5718 -6.76015,0.86392 -9.39902,0.6673 z"
     id="path34"
     sodipodi:nodetypes="ssssssscscsssssssssssscsscsssssssssssssssssssssssssssssssssssssssssssssssss" />
</svg>
