<?xml version="1.0" encoding="UTF-8" standalone="no"?>
<svg
   xmlns:dc="http://purl.org/dc/elements/1.1/"
   xmlns:cc="http://creativecommons.org/ns#"
   xmlns:rdf="http://www.w3.org/1999/02/22-rdf-syntax-ns#"
   xmlns:svg="http://www.w3.org/2000/svg"
   xmlns="http://www.w3.org/2000/svg"
   xmlns:sodipodi="http://sodipodi.sourceforge.net/DTD/sodipodi-0.dtd"
   xmlns:inkscape="http://www.inkscape.org/namespaces/inkscape"
   viewBox="0 0 249.99998 136.98303"
   height="136.98303"
   width="249.99998"
   id="svg885"
   version="1.1">
  <metadata
     id="metadata891">
    <rdf:RDF>
      <cc:Work
         rdf:about="">
        <dc:format>image/svg+xml</dc:format>
        <dc:type
           rdf:resource="http://purl.org/dc/dcmitype/StillImage" />
        <dc:title />
      </cc:Work>
    </rdf:RDF>
  </metadata>
  <defs
     id="defs889" />
  <sodipodi:namedview
     inkscape:current-layer="svg885"
     inkscape:window-maximized="1"
     inkscape:window-y="0"
     inkscape:window-x="0"
     inkscape:cy="86.505195"
     inkscape:cx="174.38468"
     inkscape:zoom="3.1981608"
     inkscape:pagecheckerboard="true"
     showgrid="false"
     id="namedview887"
     inkscape:window-height="1015"
     inkscape:window-width="1920"
     inkscape:pageshadow="2"
     inkscape:pageopacity="0"
     guidetolerance="10"
     gridtolerance="10"
     objecttolerance="10"
     borderopacity="1"
     bordercolor="#666666"
     pagecolor="#ffffff"
     inkscape:document-rotation="0" />
  <path
     id="path840"
     d="m1277,1827.9901 c -41.753,-3.1109 -83.9549,-14.6264 -120,-32.7439 -53.3964,-26.8389 -97.9726,-67.8483 -129.3331,-118.9844 -11.5942,-18.9054 -24.3975,-46.791 -30.19377,-65.7618 -1.51239,-4.95 -3.13629,-9.9 -3.60866,-11 -0.47236,-1.1 -2.21807,-7.7463 -3.87935,-14.7696 -6.40106,-27.0613 -9.48256,-58.5899 -8.38071,-85.7477 l 0.67014,-16.5173 -11.43716,-2.2289 c -52.91195,-10.3121 -87.82914,-13.6923 -141.33739,-13.6827 -38.09936,0.01 -51.11617,0.6876 -85.97508,4.4962 -62.03545,6.7776 -134.6105,23.2474 -207.02492,46.981 -80.43415,26.3621 -159.04158,58.1009 -283.5,114.4671 -37.91888,17.1732 -39.82399,18.0006 -38.5,16.7208 5.99114,-5.7909 113.28727,-91.8154 142,-113.8483 116.97023,-89.7576 197.28123,-136.0469 326,-187.8981 48.75663,-19.6405 62.54904,-24.499 72.33769,-25.4817 24.10453,-2.4198 50.4672,-3.2272 87.58221,-2.6822 61.8827,0.9087 108.70832,6.3121 171.5669,19.7979 7.4177,1.5914 14.3927,2.89 15.5,2.8858 2.8431,-0.011 6.5132,-6.813 6.5132,-12.0715 0,-2.6553 -1.436,-7.5134 -3.9319,-13.3019 -2.1626,-5.0154 -7.0793,-16.5439 -10.9259,-25.6189 C 988.87648,1214.8792 941.29702,1115.5485 910.73256,1060.5 862.51032,973.64871 819.27102,911.83685 716.77322,783.22938 L 690.68851,750.5 l -5.76684,-2.09608 c -14.81998,-5.38663 -25.59844,-16.41382 -30.77369,-31.48383 -6.02462,-17.54333 -1.31937,-36.78574 12.3335,-50.43861 7.49502,-7.49502 16.08229,-11.96782 27.17103,-14.15242 7.34805,-1.44765 8.7002,-1.44504 15.93835,0.0307 19.97376,4.07241 33.93071,16.69092 40.00296,36.16674 2.54902,8.17558 2.96397,8.76037 32.74396,46.14581 114.33339,143.53277 160.22136,210.72068 216.70752,317.29729 24.5967,46.4084 69.3355,141.204 94.0392,199.2565 3.5673,8.3831 5.9412,12.7343 6.9559,12.75 0.8472,0.013 6.0526,-3.3077 11.5675,-7.3797 38.6071,-28.506 85.7982,-48.5143 133.3921,-56.5561 19.9511,-3.3711 31.899,-4.3523 53,-4.3523 50.7044,0 96.4081,10.8835 142.1523,33.8509 17.7104,8.8921 42.705,24.5733 50.5468,31.7121 1.2095,1.1011 2.849,1.7527 3.6432,1.4479 0.7943,-0.3048 3.1239,-5.6492 5.1771,-11.8765 5.8101,-17.6227 23.5626,-66.428 31.8143,-87.4642 26.7358,-68.1583 57.8007,-132.5494 96.1784,-199.35823 41.7155,-72.61916 83.2816,-134.57685 155.9183,-232.40853 10.7328,-14.45559 11.9369,-16.51053 13.1841,-22.5 2.0431,-9.81148 6.7367,-18.47971 13.867,-25.60999 7.495,-7.49502 16.0823,-11.96782 27.171,-14.15242 7.3481,-1.44765 8.7002,-1.44504 15.9384,0.0307 36.255,7.39197 53.1796,45.93009 33.5254,76.33897 -5.0189,7.76519 -12.0144,13.74517 -21.1163,18.05081 -8.485,4.01381 -3.6836,-1.77502 -42.9229,51.75043 -103.782,141.56682 -169.4254,257.38486 -218.7772,385.99996 -16.7094,43.546 -44.2999,124.0252 -44.2999,129.219 0,2.5819 1.4873,5.9372 5.3959,12.1727 24.8669,39.6709 39.6592,80.5009 46.7747,129.1083 1.7883,12.216 2.2754,20.0022 2.2992,36.7501 0.017,11.6876 0.1598,21.2501 0.3182,21.25 0.1584,0 8.9334,1.7616 19.5,3.9147 33.2534,6.776 64.628,10.9196 99.7015,13.1675 22.8971,1.4674 76.8891,0.6464 100.0105,-1.5208 138.056,-12.9404 270.845,-56.7397 505,-166.5698 9.625,-4.5146 19.075,-8.8727 21,-9.6846 3.4832,-1.4691 3.4904,-1.4667 1.5,0.4861 -6.8612,6.7319 -85.1631,70.1314 -114,92.3035 -86.8262,66.7588 -169.1569,118.5499 -263.5,165.7577 -77.9144,38.9872 -133.7265,59.8036 -176,65.6433 -21.885,3.0232 -85.2551,1.4771 -125,-3.0498 -33.224,-3.7841 -82.3185,-12.3825 -108.1447,-18.9403 -2.4981,-0.6343 -3.1727,0.1227 -12.1733,13.6604 -37.3921,56.2408 -88.2508,97.4925 -150.141,121.7801 -14.0829,5.5265 -34.3823,11.622 -49.8038,14.955 -24.1336,5.2159 -61.6656,7.8806 -85.7372,6.087 z"
     style="display:inline;opacity:1;fill:#000000;fill-opacity:1"
     clip-path="none" />
</svg>
