<?xml version="1.0" encoding="UTF-8" standalone="no"?>
<svg
   xmlns:dc="http://purl.org/dc/elements/1.1/"
   xmlns:cc="http://creativecommons.org/ns#"
   xmlns:rdf="http://www.w3.org/1999/02/22-rdf-syntax-ns#"
   xmlns:svg="http://www.w3.org/2000/svg"
   xmlns="http://www.w3.org/2000/svg"
   xmlns:sodipodi="http://sodipodi.sourceforge.net/DTD/sodipodi-0.dtd"
   xmlns:inkscape="http://www.inkscape.org/namespaces/inkscape"
   version="1.1"
   id="svg142"
   width="250"
   height="249.96512"
   viewBox="0 0 250 249.96512"
   sodipodi:docname="LogoSolid.svg"
   inkscape:version="1.0 (1.0+r73+1)">
  <metadata
     id="metadata148">
    <rdf:RDF>
      <cc:Work
         rdf:about="">
        <dc:format>image/svg+xml</dc:format>
        <dc:type
           rdf:resource="http://purl.org/dc/dcmitype/StillImage" />
        <dc:title></dc:title>
      </cc:Work>
    </rdf:RDF>
  </metadata>
  <defs
     id="defs146" />
  <sodipodi:namedview
     inkscape:document-rotation="0"
     pagecolor="#ffffff"
     bordercolor="#666666"
     borderopacity="1"
     objecttolerance="10"
     gridtolerance="10"
     guidetolerance="10"
     inkscape:pageopacity="0"
     inkscape:pageshadow="2"
     inkscape:window-width="1920"
     inkscape:window-height="1015"
     id="namedview144"
     showgrid="false"
     inkscape:pagecheckerboard="true"
     units="in"
     inkscape:zoom="1.3632168"
     inkscape:cx="296.46688"
     inkscape:cy="204.34138"
     inkscape:window-x="0"
     inkscape:window-y="0"
     inkscape:window-maximized="1"
     inkscape:current-layer="g154" />
  <g
     inkscape:groupmode="layer"
     inkscape:label="Image"
     id="g150"
     style="opacity:1"
     transform="translate(-7.9444457,-7.8978979)">
    <g
       id="g154"
       transform="matrix(0.12599518,0,0,0.12599518,6.9434838,6.9028008)">
      <path
         style="display:inline;fill:#99ffff;fill-opacity:1"
         d="M 948.5,1990.8683 C 740.22904,1979.9801 542.85071,1904.8566 380,1774.4933 199.22018,1629.7777 74.164868,1425.6061 28.122321,1200 -17.382893,977.02681 14.649897,744.54999 118.44313,544.5 256.69538,278.03403 507.85501,87.74438 800,28.122321 1105.032,-34.129777 1420.5182,49.116105 1653,253.1995 1817.309,397.43764 1928.7049,588.45542 1971.8777,800 c 66.977,328.1837 -34.2696,665.5664 -270.561,901.5866 -175.41,175.2087 -404.2948,276.6187 -653.1215,289.3726 -23.2388,1.1912 -76.09321,1.143 -99.6952,-0.091 z m 94,-176.8751 c 131.3868,-7.632 251.5442,-44.5493 364,-111.8358 162.3119,-97.1173 287.7187,-253.1399 349.5229,-434.8529 19.6309,-57.7174 32.3425,-114.5344 38.8853,-173.8045 3.9963,-36.2027 4.5918,-48.3282 4.5918,-93.5 0,-45.17181 -0.5955,-57.2973 -4.5918,-93.5 C 1780.4947,775.92957 1734.2328,649.67872 1660.612,540 1563.5783,395.44126 1421.9444,285.49874 1259.8884,228.94055 1120.6792,180.35602 970.31441,171.7507 826.55897,204.14129 657.94905,242.13201 506.40889,334.77117 392.48227,469.5 c -63.58021,75.1895 -115.39114,166.50676 -147.51695,260 -23.4753,68.31834 -36.49195,131.63371 -43.17271,210 -1.71579,20.12648 -1.71579,100.8735 0,121 9.75316,114.406 35.68764,209.5114 83.37517,305.7486 73.93562,149.2079 188.64135,269.8084 333.35225,350.4831 13.38755,7.4634 47.91526,24.6033 63.06124,31.3043 85.65324,37.8949 178.7318,60.2881 273.91873,65.9005 19.44325,1.1464 67.6989,1.1778 87,0.057 z M 696.92931,1362.25 c 1.08347,-2.0625 28.23646,-49.2 60.33997,-104.75 l 58.37002,-101 -258.42591,-0.2519 c -206.0376,-0.2008 -258.32848,-0.5049 -257.94532,-1.5 0.32875,-0.8538 138.42176,-240.43616 146.34955,-253.90695 0.28357,-0.48184 94.09519,52.8517 96.21359,54.6991 0.18217,0.15887 -12.08033,21.77109 -27.25,48.02715 C 499.41155,1029.8235 487,1051.6869 487,1052.1529 c 0,0.4659 87.29362,0.8471 193.98581,0.8471 h 193.98581 l 2.42843,-3.75 c 1.33564,-2.0625 25.20625,-43.2405 53.04581,-91.50667 45.80849,-79.41938 50.50535,-87.96979 49.43831,-90 -2.48595,-4.72986 -192.17762,-333.28466 -192.85806,-334.03913 -0.39474,-0.43769 -45.1851,76.28731 -99.53413,170.5 -54.34904,94.21269 -99.09746,171.62733 -99.44094,172.03254 -0.97863,1.15448 -95.56974,-53.90917 -95.43415,-55.5544 0.18399,-2.23255 298.62757,-518.64929 299.44267,-518.14553 0.40087,0.24775 58.68845,100.84647 129.52796,223.5527 100.30108,173.73875 129.03288,222.78135 129.85578,221.65197 0.5812,-0.79764 31.4317,-54.14759 68.5567,-118.55544 37.125,-64.40785 67.7721,-117.12337 68.1047,-117.14561 0.6362,-0.0425 492.8953,852.15317 492.8953,853.29717 0,0.3643 -44.7862,0.6624 -99.5249,0.6624 h -99.5249 l 0.076,-52.7046 0.077,-52.7047 -149.3016,-258.7576 C 1250.6857,859.51641 1183.275,743.06731 1183,743.05733 c -0.955,-0.0347 -67.4994,116.36 -67.4033,117.89686 0.053,0.8502 38.1874,67.47081 84.7426,148.04581 l 84.6459,146.5 -170.5507,0.5 -170.55067,0.5 -30.44192,52.7324 L 883,1261.9649 V 1313.9824 1366 H 788.97968 694.95935 Z M 1086,1052.0962 c 0,-0.6843 -39.2895,-69.44402 -40.5066,-70.88972 -0.2116,-0.25139 -37.0574,63.19902 -40.384,69.54352 l -1.1798,2.25 h 41.0352 c 23.7775,0 41.0352,-0.3801 41.0352,-0.9038 z"
         id="path156" />
    </g>
  </g>
</svg>
